<svg width="512" height="512" viewBox="0 0 512 512" fill="none" xmlns="http://www.w3.org/2000/svg">
  <!-- Background Circle -->
  <circle cx="256" cy="256" r="256" fill="#1890ff"/>

  <!-- Coffee Cup -->
  <path d="M160 200 L160 350 C160 370 170 380 190 380 L322 380 C342 380 352 370 352 350 L352 200 Z" fill="white"/>

  <!-- Cup Handle -->
  <path d="M352 240 L352 300 C352 300 380 300 390 290 C400 280 400 260 390 250 C380 240 352 240 352 240 Z" stroke="white" stroke-width="12" fill="none"/>

  <!-- Steam Lines -->
  <path d="M200 160 Q200 130 220 130 T220 160" stroke="white" stroke-width="8" fill="none" stroke-linecap="round"/>
  <path d="M256 150 Q256 120 276 120 T276 150" stroke="white" stroke-width="8" fill="none" stroke-linecap="round"/>
  <path d="M312 160 Q312 130 332 130 T332 160" stroke="white" stroke-width="8" fill="none" stroke-linecap="round"/>

  <!-- Plate/Saucer -->
  <ellipse cx="256" cy="385" rx="110" ry="15" fill="white" opacity="0.7"/>
</svg>
